<?xml version="1.0" standalone="no"?>
<!DOCTYPE svg PUBLIC "-//W3C//DTD SVG 20010904//EN"
        "http://www.w3.org/TR/2001/REC-SVG-20010904/DTD/svg10.dtd">
<svg version="1.0" xmlns="http://www.w3.org/2000/svg"
     width="409.000000pt" height="414.000000pt" viewBox="0 0 409.000000 414.000000"
     preserveAspectRatio="xMidYMid meet">

    <g transform="translate(0.000000,414.000000) scale(0.100000,-0.100000)"
       fill="#000000" stroke="none">
        <path d="M1160 3403 l0 -258 -34 -27 c-32 -26 -42 -28 -124 -28 l-90 0 -29 35
-28 36 -84 -3 -84 -3 48 -53 48 -53 -54 -55 -53 -54 89 0 90 0 28 35 28 35 90
0 c83 0 94 -2 121 -25 19 -16 42 -25 63 -25 21 0 44 9 63 25 l30 25 280 0 281
0 25 -25 c17 -17 36 -25 59 -25 23 0 41 8 57 25 l23 25 285 0 284 0 30 -25
c19 -16 42 -25 64 -25 24 0 43 8 60 25 l25 25 219 0 219 0 3 -45 3 -45 103 62
c56 34 102 66 102 70 0 7 -198 128 -209 128 -4 0 -6 -21 -6 -46 l0 -45 -213 1
-214 1 -34 27 -34 27 0 98 0 98 68 -3 67 -3 -1 -32 -2 -33 174 0 c96 0 174 2
174 4 0 3 -23 39 -50 80 -27 42 -50 78 -50 82 0 4 23 37 50 74 28 37 50 70 50
74 0 3 -49 6 -110 6 l-110 0 0 35 0 35 -155 0 -155 0 0 -255 0 -255 -32 -30
-33 -29 -278 -1 -278 0 -35 28 -34 27 0 98 0 98 68 -3 67 -3 -1 -32 -2 -33
178 0 179 0 -56 82 c-36 54 -52 86 -47 94 5 7 28 41 52 76 l42 63 -110 3 -110
3 0 34 0 35 -155 0 -155 0 0 -265 c0 -215 -3 -265 -13 -265 -8 0 -22 -9 -32
-20 -17 -19 -31 -20 -300 -20 l-281 0 -32 28 c-32 29 -32 29 -32 126 l0 97 68
-3 67 -3 -3 -32 -2 -33 180 0 180 0 -55 77 c-30 43 -55 82 -55 88 0 6 23 42
51 80 l51 70 -111 3 -111 3 0 34 0 35 -155 0 -155 0 0 -257z m1030 237 c0 -5
-9 -9 -20 -7 -31 5 -36 17 -7 17 15 0 27 -4 27 -10z m-25 -30 c3 -5 3 -57 -1
-115 l-7 -105 -103 0 -103 0 -3 110 c-2 67 1 112 7 114 21 9 204 6 210 -4z
m-785 -9 c-20 -4 -42 -11 -49 -16 -10 -5 -12 -4 -7 3 5 8 0 12 -13 12 -12 0
-21 -7 -21 -15 0 -8 -7 -15 -15 -15 -8 0 -12 -6 -9 -14 3 -8 -4 -19 -16 -26
-12 -6 -19 -17 -17 -24 3 -7 1 -19 -4 -27 -6 -9 -9 6 -9 43 0 31 -3 63 -6 72
-5 14 7 16 97 15 69 -1 92 -4 69 -8z m1520 -101 l0 -111 -102 3 -103 3 -3 108
-3 107 106 0 105 0 0 -110z m-588 21 c-8 -4 -13 -12 -11 -17 3 -14 -54 -39
-59 -26 -2 6 -10 8 -18 5 -10 -4 -14 2 -14 21 0 25 2 26 58 26 35 0 52 -4 44
-9z m-27 -119 c14 -10 55 -69 55 -79 0 -4 -41 -9 -90 -9 -50 -1 -90 2 -90 5 0
4 14 20 30 36 17 16 30 34 30 40 0 12 50 18 65 7z m-392 -306 c4 -10 1 -13 -8
-9 -8 3 -12 9 -9 14 7 12 11 11 17 -5z m-5 -75 c-2 -5 6 -17 17 -25 11 -8 16
-15 10 -15 -18 0 -47 27 -40 38 8 13 16 14 13 2z"/>
        <path d="M728 2791 l-33 -29 -3 -404 -3 -403 46 45 45 44 0 332 c0 304 1 332
18 347 15 14 74 16 517 17 l500 0 40 40 40 40 -567 0 -568 0 -32 -29z"/>
        <path d="M2165 2781 l40 -39 533 -5 c394 -4 537 -9 548 -17 12 -10 14 -67 14
-344 l0 -332 45 -44 45 -44 0 392 c0 419 -2 436 -49 462 -13 6 -227 10 -618
10 l-598 0 40 -39z"/>
        <path d="M2560 2602 c0 -47 4 -61 17 -66 26 -10 34 7 31 65 -3 47 -6 54 -25
57 -22 3 -23 0 -23 -56z"/>
        <path d="M3070 2654 c0 -3 10 -14 22 -23 20 -17 21 -21 8 -52 -8 -19 -24 -51
-37 -71 -27 -44 -28 -48 -8 -48 8 0 25 21 37 47 13 25 28 46 33 46 6 -1 17
-22 25 -47 12 -36 20 -46 37 -46 12 0 24 4 27 8 6 10 -9 34 -20 32 -5 -1 -20
25 -33 59 -13 33 -27 59 -30 56 -4 -2 -13 5 -20 17 -7 11 -8 17 -2 13 6 -3 11
-1 11 4 0 6 -11 11 -25 11 -14 0 -25 -3 -25 -6z"/>
        <path d="M2751 2594 c-28 -44 -30 -50 -15 -64 14 -14 18 -12 40 15 33 41 39
64 21 83 -14 13 -19 10 -46 -34z"/>
        <path d="M2364 2616 c-6 -15 40 -96 55 -96 5 0 13 6 19 13 8 9 4 24 -14 55
-25 42 -50 54 -60 28z"/>
        <path d="M1144 2431 c-17 -10 -42 -34 -55 -53 -24 -33 -24 -36 -30 -358 -5
-292 -8 -340 -32 -470 -25 -136 -25 -149 -12 -205 23 -99 44 -148 78 -183 60
-63 56 -62 396 -62 194 0 320 4 338 11 57 21 92 68 123 166 36 111 36 136 8
279 -18 93 -22 157 -27 444 -6 314 -7 337 -27 370 -11 19 -35 45 -54 57 -32
23 -37 23 -354 23 -298 0 -323 -1 -352 -19z m649 -72 c14 -6 30 -21 36 -33 6
-13 12 -135 14 -321 4 -274 6 -312 31 -443 28 -149 27 -160 -14 -197 -21 -19
-39 -20 -344 -23 -206 -2 -334 0 -357 7 -24 8 -41 21 -54 44 -17 33 -17 37 15
233 32 195 33 204 27 420 -4 135 -2 236 4 258 18 65 21 66 336 66 185 0 290
-4 306 -11z m-679 -1005 c3 -8 2 -12 -4 -9 -6 3 -10 10 -10 16 0 14 7 11 14
-7z m727 -122 c-10 -19 -40 -37 -48 -28 -3 2 5 7 16 11 11 3 23 15 26 26 4 11
9 18 12 16 2 -3 0 -14 -6 -25z"/>
        <path d="M1423 2229 c-25 -29 -47 -79 -35 -79 4 0 15 18 25 39 11 24 29 43 47
51 28 12 39 11 85 -5 14 -4 12 -1 -5 9 -38 24 -91 17 -117 -15z"/>
        <path d="M1576 2197 c3 -10 9 -15 12 -12 3 3 0 11 -7 18 -10 9 -11 8 -5 -6z"/>
        <path d="M1463 2165 c-13 -28 -14 -39 -5 -57 l12 -23 -6 23 c-3 12 -1 22 5 22
6 0 11 -5 11 -12 0 -9 3 -9 12 0 17 17 26 15 32 -5 3 -10 4 2 1 26 -3 40 -16
60 -38 61 -4 0 -15 -16 -24 -35z"/>
        <path d="M1620 2135 c0 -19 5 -35 10 -35 6 0 10 16 10 35 0 19 -4 35 -10 35
-5 0 -10 -16 -10 -35z"/>
        <path d="M1384 2117 c8 -48 27 -97 37 -97 6 0 3 -7 -6 -16 -8 -9 -24 -14 -33
-12 -17 5 -46 -15 -36 -25 3 -2 -2 -7 -11 -11 -9 -3 -13 -2 -10 4 12 20 -25
10 -46 -12 -16 -17 -20 -18 -16 -6 4 12 2 15 -9 11 -9 -3 -14 2 -14 16 0 26
26 38 50 23 15 -9 19 -7 23 8 3 11 0 21 -6 23 -8 2 -6 10 6 21 21 21 23 33 2
16 -8 -6 -19 -9 -25 -5 -5 3 -10 1 -10 -4 0 -6 -5 -11 -11 -11 -5 0 -8 4 -5 9
3 5 -2 8 -11 7 -10 0 -19 9 -23 23 -3 14 -11 26 -18 29 -9 3 -12 -25 -12 -111
0 -63 -3 -135 -6 -161 l-7 -46 302 0 301 0 -1 63 c-1 34 -4 50 -6 35 -2 -16
-7 -28 -11 -28 -13 1 -42 27 -42 38 0 6 -5 12 -11 14 -7 2 -7 12 -1 28 10 26
-4 50 -28 50 -6 0 -9 4 -6 9 3 4 -6 6 -20 3 -19 -3 -22 -7 -12 -13 7 -5 11 -9
8 -10 -51 -9 -54 -9 -40 1 13 8 13 10 -2 10 -9 0 -20 -5 -23 -10 -4 -6 -14
-10 -23 -8 -10 1 -23 -1 -29 -5 -7 -5 -13 -4 -13 2 0 12 -46 7 -64 -8 -9 -7
-17 -8 -20 -2 -3 5 0 12 6 15 7 4 -2 4 -21 1 -34 -5 -34 -5 -16 15 11 12 25
18 34 14 31 -12 46 -11 80 3 19 7 41 11 49 8 12 -4 13 -3 2 10 -11 13 -15 13
-42 -1 -58 -30 -138 11 -138 70 0 11 -5 28 -10 36 -8 11 -9 8 -6 -13z m321
-147 c4 -6 -6 -10 -22 -10 -22 0 -25 2 -13 10 19 12 27 12 35 0z m-451 -45 c3
-8 1 -15 -4 -15 -6 0 -10 7 -10 15 0 8 2 15 4 15 2 0 6 -7 10 -15z m36 -5 c0
-5 -5 -10 -11 -10 -5 0 -7 5 -4 10 3 6 8 10 11 10 2 0 4 -4 4 -10z m410 2 c0
-11 -48 -13 -55 -2 -4 6 7 10 24 10 17 0 31 -4 31 -8z"/>
        <path d="M1499 2073 c-13 -16 -12 -17 4 -4 9 7 17 15 17 17 0 8 -8 3 -21 -13z"/>
        <path d="M1623 2032 c-8 -14 -8 -19 1 -19 7 0 13 9 13 19 1 10 1 18 0 18 -1 0
-7 -8 -14 -18z"/>
        <path d="M1779 2018 c0 -7 -2 -20 -3 -28 -2 -8 1 -26 5 -40 5 -19 7 -12 8 28
1 28 -1 52 -4 52 -3 0 -5 -6 -6 -12z"/>
        <path d="M1570 1990 c0 -5 5 -10 11 -10 5 0 7 5 4 10 -3 6 -8 10 -11 10 -2 0
-4 -4 -4 -10z"/>
        <path d="M1290 1541 c0 -10 29 -36 34 -30 1 2 -6 12 -16 22 -10 9 -18 13 -18
8z"/>
        <path d="M2228 2429 c-44 -23 -65 -60 -103 -182 -27 -86 -28 -91 -15 -175 7
-48 17 -105 22 -127 6 -22 13 -195 17 -385 7 -384 4 -371 77 -427 l37 -28 316
-3 c313 -2 316 -2 356 21 22 12 49 40 61 61 21 37 22 54 27 365 5 282 9 345
30 466 l24 140 -19 70 c-33 121 -57 165 -107 196 l-45 29 -320 0 c-300 -1
-323 -2 -358 -21z m684 -88 c13 -14 16 -20 8 -14 -9 7 -33 9 -58 6 -43 -6 -60
-21 -19 -18 39 3 50 -5 32 -25 -14 -16 -14 -18 0 -24 9 -3 24 -6 33 -6 8 0 24
-8 34 -17 19 -17 19 -16 12 12 -4 17 -4 27 0 24 4 -4 8 -17 10 -30 2 -13 9
-36 16 -51 14 -29 2 -142 -36 -352 -8 -43 -15 -144 -16 -225 -2 -141 -2 -142
-5 -33 -2 63 -8 112 -13 112 -6 0 -10 32 -10 70 0 39 3 70 8 70 4 0 8 33 10
73 2 39 8 89 13 110 6 21 11 63 12 94 3 78 -18 93 -126 93 -44 0 -77 -3 -73
-7 3 -4 -4 -13 -16 -20 -23 -12 -23 -12 7 -13 l30 -1 -25 -20 c-16 -14 -34
-19 -54 -16 -58 8 -64 -4 -58 -121 5 -109 1 -121 -40 -122 -16 0 -18 11 -18
85 0 82 -1 86 -25 95 -14 5 -25 16 -25 25 0 14 12 19 70 29 14 2 0 4 -30 4
-53 1 -121 19 -137 37 -5 4 -3 6 2 3 6 -3 19 -2 30 2 17 6 15 8 -13 14 -18 4
-30 12 -26 17 7 13 -143 12 -167 -1 -24 -13 -25 -84 -4 -215 17 -100 18 -119
5 -90 -8 18 -9 17 -9 -8 -1 -16 3 -26 9 -22 5 3 12 -7 16 -22 3 -15 8 -34 10
-42 2 -7 1 -29 -2 -48 -5 -25 -9 -31 -15 -21 -5 7 -9 -92 -9 -230 l0 -244 29
-29 c17 -17 24 -29 16 -29 -7 0 -23 12 -34 26 -20 26 -21 39 -21 308 0 253 -3
295 -25 426 -29 167 -31 210 -10 249 15 30 47 46 110 56 36 5 40 9 40 35 0 29
-1 30 -53 30 -55 0 -62 12 -18 30 11 5 153 8 313 7 l292 -2 23 -24z m-5 -818
c-3 -10 -5 -2 -5 17 0 19 2 27 5 18 2 -10 2 -26 0 -35z m-357 -63 c38 -38 38
-95 1 -141 -30 -37 -96 -32 -133 10 -38 42 -37 83 1 122 37 36 99 41 131 9z
m134 -32 l46 -53 -3 50 c-2 44 0 50 18 50 18 0 20 -8 23 -87 2 -79 1 -88 -15
-88 -10 0 -37 21 -60 47 l-42 48 -1 -47 c0 -51 -9 -64 -32 -45 -20 16 -13 177
7 177 7 0 34 -24 59 -52z m229 -201 c-11 -18 -28 -33 -39 -35 -17 -2 -17 -2
-2 8 21 13 48 65 50 99 1 21 2 19 5 -7 3 -20 -3 -45 -14 -65z"/>
        <path d="M2452 1428 c-7 -7 -12 -26 -12 -43 0 -36 15 -55 46 -55 27 0 47 23
47 55 0 47 -50 74 -81 43z"/>
        <path d="M3360 1877 c0 -2 15 -16 33 -33 l32 -29 -29 33 c-28 30 -36 37 -36
29z"/>
        <path d="M3419 1743 c-13 -16 -12 -17 4 -4 9 7 17 15 17 17 0 8 -8 3 -21 -13z"/>
        <path d="M3322 1647 c-39 -39 -75 -76 -79 -82 -4 -5 30 26 75 70 75 73 87 85
80 85 -2 0 -36 -33 -76 -73z"/>
        <path d="M692 1208 l3 -397 29 -30 c16 -17 43 -33 60 -36 17 -3 264 -4 549 -3
l518 3 -36 43 -37 42 -487 0 c-365 0 -490 3 -499 12 -9 9 -12 99 -12 343 l0
331 -45 44 -46 45 3 -397z"/>
        <path d="M3343 1557 l-43 -47 0 -328 c0 -242 -3 -331 -12 -340 -9 -9 -134 -12
-499 -12 l-487 0 -36 -45 -37 -45 528 1 c382 0 538 3 563 12 20 7 41 25 52 43
17 29 18 60 16 419 l-3 388 -42 -46z"/>
        <path d="M1830 884 c0 -6 15 -23 33 -40 l32 -29 -30 35 c-16 19 -31 37 -32 39
-2 2 -3 0 -3 -5z"/>
        <path d="M2205 838 l-40 -43 43 40 c23 21 42 40 42 42 0 8 -9 0 -45 -39z"/>
        <path d="M2145 779 c-11 -16 -1 -19 13 -3 7 8 8 14 3 14 -5 0 -13 -5 -16 -11z"/>
        <path d="M2080 705 c-21 -22 -40 -33 -50 -30 -12 5 -13 4 -2 -7 10 -10 20 -4
55 30 23 23 39 42 36 42 -3 0 -20 -16 -39 -35z"/>
        <path d="M2035 721 c-3 -5 -2 -12 3 -15 5 -3 9 1 9 9 0 17 -3 19 -12 6z"/>
    </g>
</svg>
